<svg width="19" height="26" viewBox="0 0 19 26" fill="none" xmlns="http://www.w3.org/2000/svg">
<path d="M2.69995 25.5603C1.83595 25.5603 1.21195 25.4403 0.827951 25.2003C0.443951 24.9363 0.203951 24.5883 0.107951 24.1563C0.0359512 23.7243 -4.88013e-05 23.2803 -4.88013e-05 22.8243V3.09633C-4.88013e-05 2.64033 0.0359512 2.20833 0.107951 1.80033C0.203951 1.36833 0.443951 1.03233 0.827951 0.792327C1.21195 0.528327 1.84795 0.396326 2.73595 0.396326C3.64795 0.396326 4.28395 0.528327 4.64395 0.792327C5.02795 1.05633 5.25595 1.39233 5.32795 1.80033C5.42395 2.20833 5.47195 2.65233 5.47195 3.13233V9.36033L13.176 1.29633C13.656 0.816326 14.088 0.480326 14.472 0.288327C14.88 0.0963271 15.288 0.0603268 15.696 0.180327C16.128 0.300327 16.584 0.600327 17.064 1.08033C17.88 1.82433 18.288 2.48433 18.288 3.06033C18.312 3.61233 17.976 4.23633 17.28 4.93233L8.99995 12.9963L17.352 20.9883C18.096 21.7323 18.444 22.4043 18.396 23.0043C18.372 23.5803 17.952 24.2043 17.136 24.8763C16.56 25.3563 16.056 25.6563 15.624 25.7763C15.216 25.9203 14.832 25.8843 14.472 25.6683C14.112 25.4763 13.704 25.1283 13.248 24.6243L5.47195 16.5243V22.8603C5.47195 23.3163 5.42395 23.7603 5.32795 24.1923C5.25595 24.6003 5.02795 24.9363 4.64395 25.2003C4.25995 25.4403 3.61195 25.5603 2.69995 25.5603Z" fill="#FFC400"/>
</svg>
